<svg width="500" height="500" viewBox="0 0 500 500" fill="none" xmlns="http://www.w3.org/2000/svg">
<path d="M87.32 329.83C86 322.28 85.11 308.1 76.46 296.14C70.19 287.48 60.31 279.72 52.76 281.97C45.76 284.06 46.98 295.21 55.15 301.58C63.32 307.95 73.87 316.9 78.67 333.28L85.75 344.82L87.32 329.83Z" fill="#FF923F"/>
<g opacity="0.1">
<path opacity="0.1" d="M87.32 329.83C86 322.28 85.11 308.1 76.46 296.14C70.19 287.48 60.31 279.72 52.76 281.97C45.76 284.06 46.98 295.21 55.15 301.58C63.32 307.95 73.87 316.9 78.67 333.28L85.75 344.82L87.32 329.83Z" fill="black"/>
</g>
<path d="M85.66 335.59C85.5304 335.587 85.4062 335.538 85.3093 335.452C85.2123 335.366 85.1488 335.248 85.13 335.12C82.29 313.49 72.22 296.87 56 287.05C55.9401 287.014 55.8879 286.967 55.8464 286.91C55.8049 286.854 55.7749 286.79 55.7581 286.722C55.7414 286.655 55.7383 286.584 55.7489 286.515C55.7595 286.446 55.7837 286.38 55.82 286.32C55.8963 286.2 56.0159 286.115 56.1538 286.081C56.2917 286.048 56.4373 286.069 56.56 286.14C73.06 296.13 83.3 313 86.19 335C86.1998 335.07 86.1957 335.141 86.1778 335.209C86.1599 335.277 86.1286 335.341 86.0858 335.396C86.043 335.452 85.9895 335.499 85.9284 335.534C85.8673 335.569 85.7999 335.591 85.73 335.6L85.66 335.59Z" fill="white"/>
<path d="M85 346.07C81.6923 349.455 77.5547 351.914 73 353.2C65.09 355.52 61 352.14 61 352.14C61 352.14 63.18 344.19 67.47 341.48C62.6924 343.23 58.2435 345.773 54.31 349C54.31 349 49.41 349.72 46.48 342.48C46.48 342.48 48.8 337.59 58.23 333.89C58.23 333.89 52.1 333.17 43.84 336.46C43.23 336.8 39.23 327.46 37.84 323.12C36.45 318.78 38.23 318.57 41.6 317.18C44.97 315.79 56.74 313.67 59.17 315.3C61.6 316.93 63.56 323.3 63.56 323.3C63.56 323.3 65.17 319.3 64.23 316.08C66.5715 315.064 69.1674 314.789 71.67 315.29C75.76 316.14 76.59 318.8 77.51 321.52C78.4688 324.317 78.8099 327.289 78.51 330.23C78.51 330.23 80.6 325.1 79.2 320.55C81.8663 321.634 84.1984 323.404 85.96 325.68C88.55 329.36 89.34 339.6 85 346.07Z" fill="#FF923F"/>
<path d="M85 346.61C84.9113 346.608 84.8243 346.586 84.7461 346.544C84.6678 346.502 84.6006 346.443 84.55 346.37C76.32 333.75 50.2 321.26 41.36 320.71C41.2185 320.7 41.0867 320.634 40.9931 320.528C40.8996 320.421 40.8517 320.282 40.86 320.14C40.8638 320.069 40.8816 320 40.9125 319.937C40.9434 319.873 40.9866 319.817 41.0397 319.77C41.0928 319.723 41.1547 319.688 41.2217 319.666C41.2887 319.643 41.3596 319.635 41.43 319.64C50.43 320.21 77.06 332.94 85.43 345.78C85.4813 345.861 85.5104 345.953 85.5142 346.049C85.518 346.144 85.4964 346.239 85.4517 346.323C85.407 346.408 85.3407 346.478 85.2596 346.529C85.1785 346.579 85.0854 346.607 84.99 346.61H85Z" fill="white"/>
<path d="M208.59 98.16V288.62L204.73 290.85V100.39L208.59 98.16Z" fill="#37474F"/>
<path d="M204.73 100.39V290.85L197.06 286.42V95.97L204.73 100.39Z" fill="#263238"/>
<path d="M392.71 394.97L388.85 397.18V206.73L392.7 204.51L392.71 394.97Z" fill="#37474F"/>
<path d="M388.85 206.73V397.18L381.18 392.76V202.3L388.85 206.73Z" fill="#263238"/>
<path d="M390.84 196.72L390.73 196.66L206.81 90.48C202.39 87.82 190.24 91.08 175.91 99.36L155 111.44C136.94 121.88 122.3 136.28 122.3 143.62V148.05L306.41 254.35L392.72 204.51V200.08C392.756 199.4 392.598 198.723 392.265 198.128C391.933 197.534 391.438 197.046 390.84 196.72V196.72Z" fill="#FF923F"/>
<path opacity="0.4" d="M390.73 196.66C386.16 194.21 374.13 197.52 359.99 205.66L339.11 217.73C321.04 228.15 306.39 242.56 306.39 249.9L126.11 145.83L122.28 143.62C122.28 136.28 136.92 121.88 154.98 111.44L175.88 99.38C190.21 91.1 202.36 87.84 206.78 90.5L390.73 196.66Z" fill="white"/>
<path opacity="0.1" d="M306.39 249.92V254.34L122.28 148.05V143.62L306.39 249.92Z" fill="black"/>
<path d="M272.37 335.05C272.841 335.053 273.304 334.928 273.71 334.69L302.8 317.9C304.369 317 305.674 315.705 306.587 314.143C307.499 312.582 307.986 310.808 308 309V275.38C308 274.664 307.716 273.977 307.209 273.471C306.703 272.964 306.016 272.68 305.3 272.68C304.584 272.68 303.897 272.964 303.391 273.471C302.884 273.977 302.6 274.664 302.6 275.38V309C302.599 309.862 302.371 310.709 301.94 311.455C301.508 312.201 300.887 312.82 300.14 313.25L271 330C270.503 330.305 270.118 330.764 269.903 331.306C269.688 331.849 269.655 332.446 269.808 333.009C269.961 333.572 270.293 334.07 270.753 334.429C271.213 334.788 271.777 334.988 272.36 335L272.37 335.05Z" fill="#263238"/>
<path d="M331.75 368.58C332.223 368.578 332.688 368.454 333.1 368.22L362.18 351.42C363.746 350.513 365.047 349.211 365.953 347.644C366.858 346.077 367.337 344.3 367.34 342.49V308.9C367.34 308.184 367.056 307.497 366.549 306.991C366.043 306.484 365.356 306.2 364.64 306.2C363.924 306.2 363.237 306.484 362.731 306.991C362.224 307.497 361.94 308.184 361.94 308.9V342.49C361.939 343.352 361.711 344.199 361.28 344.945C360.848 345.691 360.227 346.31 359.48 346.74L330.4 363.54C329.903 363.845 329.519 364.302 329.304 364.844C329.089 365.385 329.054 365.982 329.206 366.545C329.358 367.107 329.688 367.605 330.147 367.965C330.605 368.325 331.167 368.526 331.75 368.54V368.58Z" fill="#263238"/>
<path d="M215 301.28C215.475 301.279 215.941 301.151 216.35 300.91L245.44 284.12C247.005 283.212 248.304 281.91 249.207 280.343C250.111 278.776 250.588 276.999 250.59 275.19V241.6C250.59 240.884 250.306 240.197 249.799 239.691C249.293 239.184 248.606 238.9 247.89 238.9C247.174 238.9 246.487 239.184 245.981 239.691C245.474 240.197 245.19 240.884 245.19 241.6V275.19C245.189 276.051 244.962 276.896 244.532 277.642C244.103 278.388 243.485 279.008 242.74 279.44L213.65 296.24C213.153 296.545 212.769 297.002 212.554 297.544C212.339 298.085 212.304 298.682 212.456 299.245C212.608 299.807 212.938 300.305 213.397 300.665C213.855 301.025 214.417 301.226 215 301.24V301.28Z" fill="#263238"/>
<path d="M326.71 365.23V396.32C326.736 396.589 326.833 396.847 326.991 397.067C327.149 397.286 327.363 397.46 327.61 397.57C328.283 397.91 329.026 398.087 329.78 398.087C330.534 398.087 331.277 397.91 331.95 397.57C332.197 397.46 332.411 397.286 332.569 397.067C332.727 396.847 332.824 396.589 332.85 396.32V365.23H326.71Z" fill="#263238"/>
<path d="M352.37 350.62V381.7C352.394 381.971 352.491 382.231 352.649 382.452C352.807 382.674 353.021 382.849 353.27 382.96C353.943 383.3 354.686 383.477 355.44 383.477C356.194 383.477 356.937 383.3 357.61 382.96C357.856 382.847 358.068 382.671 358.224 382.449C358.38 382.228 358.476 381.97 358.5 381.7V350.62H352.37Z" fill="#263238"/>
<path d="M210.09 297.9V329C210.114 329.27 210.21 329.528 210.369 329.748C210.527 329.968 210.742 330.142 210.99 330.25C211.66 330.595 212.402 330.775 213.155 330.775C213.908 330.775 214.65 330.595 215.32 330.25C215.568 330.142 215.783 329.968 215.941 329.748C216.1 329.528 216.196 329.27 216.22 329V297.9H210.09Z" fill="#263238"/>
<path d="M235.75 283.28V314.37C235.774 314.639 235.869 314.896 236.026 315.116C236.182 315.335 236.394 315.509 236.64 315.62C237.313 315.96 238.056 316.137 238.81 316.137C239.564 316.137 240.307 315.96 240.98 315.62C241.227 315.51 241.441 315.336 241.599 315.117C241.757 314.897 241.854 314.639 241.88 314.37V283.28H235.75Z" fill="#263238"/>
<path d="M373.35 316.52L373.89 316.21C374.345 315.915 374.723 315.517 374.995 315.048C375.266 314.578 375.422 314.051 375.45 313.51V308.67C375.419 308.129 375.262 307.603 374.991 307.134C374.72 306.665 374.343 306.267 373.89 305.97L245.68 232C245.197 231.753 244.662 231.625 244.12 231.625C243.578 231.625 243.043 231.753 242.56 232L242.02 232.31C241.566 232.605 241.188 233.004 240.917 233.473C240.645 233.942 240.489 234.469 240.46 235.01V239.85C240.491 240.391 240.648 240.917 240.919 241.386C241.19 241.855 241.567 242.253 242.02 242.55L370.24 316.55C370.724 316.792 371.258 316.915 371.799 316.91C372.339 316.905 372.871 316.771 373.35 316.52V316.52Z" fill="#455A64"/>
<path d="M368.14 311.09L374.99 307.14C375.277 307.6 375.435 308.128 375.45 308.67V313.51C375.422 314.051 375.266 314.578 374.995 315.048C374.723 315.517 374.345 315.915 373.89 316.21L373.35 316.52C372.869 316.767 372.336 316.895 371.795 316.895C371.254 316.895 370.721 316.767 370.24 316.52L368.14 315.31V311.09Z" fill="#263238"/>
<path d="M370.24 308.08L242 234.06C241.14 233.56 240.44 233.96 240.44 234.96V239.8C240.471 240.341 240.628 240.867 240.899 241.336C241.17 241.805 241.547 242.203 242 242.5L370.22 316.5C371.08 317 371.77 316.6 371.77 315.6V310.76C371.741 310.225 371.587 309.705 371.321 309.239C371.056 308.774 370.686 308.377 370.24 308.08V308.08Z" fill="#37474F"/>
<path d="M373.35 331.33L373.89 331.02C374.343 330.723 374.72 330.325 374.991 329.856C375.262 329.387 375.419 328.861 375.45 328.32V323.48C375.422 322.939 375.266 322.412 374.995 321.942C374.723 321.473 374.345 321.075 373.89 320.78L245.68 246.78C245.196 246.538 244.662 246.412 244.12 246.412C243.578 246.412 243.044 246.538 242.56 246.78L242.02 247.09C241.567 247.387 241.19 247.785 240.919 248.254C240.648 248.723 240.491 249.249 240.46 249.79V254.63C240.488 255.171 240.644 255.698 240.915 256.167C241.187 256.637 241.565 257.035 242.02 257.33L370.24 331.33C370.723 331.572 371.255 331.698 371.795 331.698C372.335 331.698 372.867 331.572 373.35 331.33V331.33Z" fill="#455A64"/>
<path d="M368.14 325.9L374.99 321.9C375.275 322.364 375.434 322.895 375.45 323.44V328.28C375.419 328.821 375.262 329.347 374.991 329.816C374.72 330.285 374.343 330.683 373.89 330.98L373.35 331.29C372.867 331.532 372.335 331.658 371.795 331.658C371.255 331.658 370.723 331.532 370.24 331.29L368.14 330.08V325.9Z" fill="#263238"/>
<path d="M370.24 322.89L242 248.86C241.14 248.37 240.44 248.77 240.44 249.76V254.6C240.468 255.141 240.624 255.668 240.895 256.137C241.167 256.607 241.545 257.005 242 257.3L370.22 331.3C371.08 331.79 371.77 331.39 371.77 330.4V325.56C371.741 325.026 371.588 324.507 371.322 324.043C371.057 323.579 370.686 323.185 370.24 322.89V322.89Z" fill="#37474F"/>
<path d="M373.35 346.13L373.89 345.82C374.343 345.523 374.72 345.125 374.991 344.656C375.262 344.187 375.419 343.661 375.45 343.12V338.28C375.421 337.739 375.265 337.212 374.994 336.743C374.722 336.274 374.344 335.875 373.89 335.58L245.68 261.58C245.197 261.333 244.662 261.205 244.12 261.205C243.578 261.205 243.043 261.333 242.56 261.58L242.02 261.89C241.565 262.185 241.187 262.583 240.915 263.052C240.644 263.522 240.488 264.049 240.46 264.59V269.43C240.491 269.971 240.648 270.497 240.919 270.966C241.19 271.435 241.567 271.833 242.02 272.13L370.24 346.13C370.721 346.377 371.254 346.505 371.795 346.505C372.336 346.505 372.869 346.377 373.35 346.13V346.13Z" fill="#455A64"/>
<path d="M368.14 340.7L374.99 336.7C375.275 337.164 375.434 337.695 375.45 338.24V343.08C375.419 343.621 375.262 344.147 374.991 344.616C374.72 345.085 374.343 345.483 373.89 345.78L373.35 346.09C372.869 346.337 372.336 346.465 371.795 346.465C371.254 346.465 370.721 346.337 370.24 346.09L368.14 344.88V340.7Z" fill="#263238"/>
<path d="M370.24 337.69L242 263.67C241.14 263.17 240.44 263.57 240.44 264.57V269.41C240.471 269.951 240.628 270.477 240.899 270.946C241.17 271.415 241.547 271.813 242 272.11L370.22 346.11C371.08 346.61 371.77 346.2 371.77 345.21V340.37C371.742 339.835 371.589 339.314 371.323 338.848C371.058 338.383 370.687 337.986 370.24 337.69V337.69Z" fill="#37474F"/>
<path d="M368.14 355.09V355.71C368.112 356.251 367.956 356.778 367.685 357.248C367.413 357.717 367.035 358.115 366.58 358.41L362.39 360.83C361.907 361.077 361.372 361.205 360.83 361.205C360.288 361.205 359.753 361.077 359.27 360.83L231.06 286.83C230.606 286.535 230.228 286.136 229.956 285.667C229.685 285.198 229.529 284.671 229.5 284.13V283.51C229.531 282.969 229.688 282.443 229.959 281.974C230.23 281.505 230.607 281.107 231.06 280.81L235.25 278.39C235.733 278.143 236.268 278.015 236.81 278.015C237.352 278.015 237.887 278.143 238.37 278.39L366.58 352.39C367.033 352.687 367.41 353.085 367.681 353.554C367.952 354.023 368.109 354.549 368.14 355.09V355.09Z" fill="#37474F"/>
<path d="M360.83 353.29V361.21C361.374 361.218 361.911 361.088 362.39 360.83L366.58 358.41C367.035 358.115 367.413 357.717 367.685 357.248C367.956 356.778 368.112 356.251 368.14 355.71V355.09C368.109 354.549 367.952 354.023 367.681 353.554C367.41 353.085 367.033 352.687 366.58 352.39L364.48 351.18L360.83 353.29Z" fill="#263238"/>
<path d="M359.27 356.61L231.06 282.61C230.891 282.528 230.748 282.4 230.649 282.241C230.549 282.082 230.496 281.898 230.496 281.71C230.496 281.522 230.549 281.338 230.649 281.179C230.748 281.02 230.891 280.892 231.06 280.81L235.25 278.39C235.733 278.143 236.268 278.015 236.81 278.015C237.352 278.015 237.887 278.143 238.37 278.39L366.58 352.39C366.749 352.472 366.892 352.6 366.991 352.759C367.091 352.918 367.144 353.102 367.144 353.29C367.144 353.478 367.091 353.662 366.991 353.821C366.892 353.98 366.749 354.108 366.58 354.19L362.39 356.61C361.907 356.857 361.372 356.985 360.83 356.985C360.288 356.985 359.753 356.857 359.27 356.61V356.61Z" fill="#455A64"/>
<path d="M355.35 362.48V363.1C355.319 363.641 355.162 364.167 354.891 364.636C354.62 365.105 354.243 365.503 353.79 365.8L349.6 368.22C349.117 368.467 348.582 368.595 348.04 368.595C347.498 368.595 346.963 368.467 346.48 368.22L218.26 294.22C217.808 293.923 217.432 293.524 217.163 293.055C216.894 292.586 216.739 292.06 216.71 291.52V290.9C216.736 290.359 216.891 289.833 217.16 289.363C217.429 288.894 217.806 288.495 218.26 288.2L222.46 285.78C222.941 285.533 223.474 285.405 224.015 285.405C224.556 285.405 225.089 285.533 225.57 285.78L353.79 359.78C354.244 360.075 354.622 360.474 354.894 360.943C355.165 361.412 355.321 361.939 355.35 362.48V362.48Z" fill="#37474F"/>
<path d="M348 360.68V368.59C348.543 368.602 349.08 368.475 349.56 368.22L353.75 365.8C354.203 365.503 354.58 365.105 354.851 364.636C355.122 364.167 355.279 363.641 355.31 363.1V362.48C355.281 361.939 355.125 361.412 354.854 360.943C354.582 360.474 354.204 360.075 353.75 359.78L351.65 358.57L348 360.68Z" fill="#263238"/>
<path d="M346.48 364L218.26 290C218.091 289.918 217.948 289.79 217.849 289.631C217.749 289.472 217.696 289.288 217.696 289.1C217.696 288.912 217.749 288.728 217.849 288.569C217.948 288.41 218.091 288.282 218.26 288.2L222.46 285.78C222.941 285.533 223.474 285.405 224.015 285.405C224.556 285.405 225.089 285.533 225.57 285.78L353.79 359.78C353.959 359.862 354.102 359.99 354.201 360.149C354.301 360.308 354.354 360.492 354.354 360.68C354.354 360.868 354.301 361.052 354.201 361.211C354.102 361.37 353.959 361.498 353.79 361.58L349.6 364C349.117 364.247 348.582 364.375 348.04 364.375C347.498 364.375 346.963 364.247 346.48 364V364Z" fill="#455A64"/>
<path d="M342.55 369.86V370.49C342.522 371.029 342.367 371.553 342.098 372.021C341.828 372.489 341.452 372.886 341 373.18L336.8 375.61C336.317 375.852 335.785 375.978 335.245 375.978C334.705 375.978 334.173 375.852 333.69 375.61L205.47 301.61C205.016 301.315 204.638 300.916 204.367 300.447C204.095 299.978 203.939 299.451 203.91 298.91V298.29C203.941 297.749 204.098 297.223 204.369 296.754C204.64 296.285 205.017 295.887 205.47 295.59L209.67 293.17C210.151 292.923 210.684 292.795 211.225 292.795C211.766 292.795 212.299 292.923 212.78 293.17L341 367.17C341.451 367.466 341.825 367.864 342.095 368.331C342.364 368.798 342.52 369.322 342.55 369.86V369.86Z" fill="#37474F"/>
<path d="M335.24 368.06V376C335.783 376.008 336.319 375.881 336.8 375.63L341 373.2C341.452 372.906 341.828 372.509 342.098 372.041C342.367 371.573 342.522 371.049 342.55 370.51V369.88C342.521 369.34 342.366 368.814 342.097 368.345C341.828 367.876 341.452 367.477 341 367.18L338.9 366L335.24 368.06Z" fill="#263238"/>
<path d="M333.69 371.39L205.47 297.39C205.301 297.308 205.158 297.18 205.059 297.021C204.959 296.862 204.906 296.678 204.906 296.49C204.906 296.302 204.959 296.118 205.059 295.959C205.158 295.8 205.301 295.672 205.47 295.59L209.67 293.17C210.151 292.923 210.684 292.795 211.225 292.795C211.766 292.795 212.299 292.923 212.78 293.17L341 367.17C341.169 367.252 341.312 367.38 341.411 367.539C341.511 367.698 341.564 367.882 341.564 368.07C341.564 368.258 341.511 368.442 341.411 368.601C341.312 368.76 341.169 368.888 341 368.97L336.8 371.4C336.317 371.64 335.784 371.765 335.244 371.763C334.704 371.761 334.172 371.633 333.69 371.39V371.39Z" fill="#455A64"/>
<path d="M364.64 307.74C364.931 307.932 365.173 308.189 365.347 308.491C365.52 308.793 365.621 309.132 365.64 309.48C365.64 310.12 365.19 310.38 364.64 310.06C364.349 309.868 364.107 309.611 363.933 309.309C363.76 309.007 363.659 308.668 363.64 308.32C363.64 307.68 364.09 307.42 364.64 307.74Z" fill="#263238"/>
<path d="M364.64 322.52C364.931 322.71 365.173 322.965 365.347 323.266C365.52 323.566 365.621 323.903 365.64 324.25C365.64 324.89 365.19 325.15 364.64 324.83C364.349 324.638 364.107 324.381 363.933 324.079C363.76 323.777 363.659 323.438 363.64 323.09C363.64 322.45 364.09 322.2 364.64 322.52Z" fill="#263238"/>
<path d="M364.64 337.29C364.931 337.482 365.173 337.739 365.347 338.041C365.52 338.343 365.621 338.682 365.64 339.03C365.64 339.66 365.19 339.92 364.64 339.6C364.349 339.41 364.107 339.155 363.933 338.854C363.76 338.554 363.659 338.217 363.64 337.87C363.64 337.23 364.09 337 364.64 337.29Z" fill="#263238"/>
<path d="M247.91 240.48C248.202 240.668 248.445 240.923 248.619 241.224C248.793 241.525 248.893 241.863 248.91 242.21C248.91 242.85 248.46 243.11 247.91 242.79C247.619 242.6 247.377 242.345 247.203 242.044C247.03 241.744 246.929 241.407 246.91 241.06C246.91 240.42 247.36 240.16 247.91 240.48Z" fill="#263238"/>
<path d="M247.91 255.25C248.202 255.441 248.445 255.697 248.619 256C248.793 256.302 248.892 256.642 248.91 256.99C248.91 257.63 248.46 257.89 247.91 257.57C247.619 257.378 247.377 257.121 247.203 256.819C247.03 256.517 246.929 256.178 246.91 255.83C246.91 255.19 247.36 254.93 247.91 255.25Z" fill="#263238"/>
<path d="M247.91 270C248.202 270.191 248.445 270.448 248.619 270.75C248.793 271.052 248.892 271.392 248.91 271.74C248.91 272.38 248.46 272.64 247.91 272.32C247.619 272.128 247.377 271.871 247.203 271.569C247.03 271.267 246.929 270.928 246.91 270.58C246.91 270 247.36 269.7 247.91 270Z" fill="#263238"/>
<path d="M356.32 349.47C356.8 349.76 356.81 350.21 356.32 350.47C356.046 350.604 355.745 350.674 355.44 350.674C355.135 350.674 354.834 350.604 354.56 350.47C354.07 350.19 354.07 349.74 354.56 349.47C354.834 349.336 355.135 349.266 355.44 349.266C355.745 349.266 356.046 349.336 356.32 349.47Z" fill="#263238"/>
<path d="M343.49 356.92C343.589 356.961 343.674 357.03 343.734 357.119C343.794 357.208 343.826 357.313 343.826 357.42C343.826 357.527 343.794 357.632 343.734 357.721C343.674 357.81 343.589 357.879 343.49 357.92C343.216 358.054 342.915 358.124 342.61 358.124C342.305 358.124 342.004 358.054 341.73 357.92C341.631 357.879 341.546 357.81 341.486 357.721C341.426 357.632 341.394 357.527 341.394 357.42C341.394 357.313 341.426 357.208 341.486 357.119C341.546 357.03 341.631 356.961 341.73 356.92C342.004 356.786 342.305 356.716 342.61 356.716C342.915 356.716 343.216 356.786 343.49 356.92Z" fill="#263238"/>
<path d="M330.66 364.37C331.15 364.65 331.15 365.1 330.66 365.37C330.389 365.513 330.087 365.587 329.78 365.587C329.473 365.587 329.171 365.513 328.9 365.37C328.41 365.09 328.41 364.64 328.9 364.37C329.174 364.236 329.475 364.166 329.78 364.166C330.085 364.166 330.386 364.236 330.66 364.37Z" fill="#263238"/>
<path d="M239.69 282.18C239.789 282.221 239.874 282.29 239.934 282.379C239.994 282.468 240.026 282.573 240.026 282.68C240.026 282.787 239.994 282.892 239.934 282.981C239.874 283.07 239.789 283.139 239.69 283.18C239.416 283.314 239.115 283.384 238.81 283.384C238.505 283.384 238.204 283.314 237.93 283.18C237.831 283.139 237.746 283.07 237.686 282.981C237.626 282.892 237.594 282.787 237.594 282.68C237.594 282.573 237.626 282.468 237.686 282.379C237.746 282.29 237.831 282.221 237.93 282.18C238.204 282.046 238.505 281.976 238.81 281.976C239.115 281.976 239.416 282.046 239.69 282.18Z" fill="#263238"/>
<path d="M226.86 289.62C227.35 289.91 227.35 290.36 226.86 290.62C226.585 290.756 226.282 290.826 225.975 290.826C225.668 290.826 225.365 290.756 225.09 290.62C224.6 290.34 224.6 289.89 225.09 289.62C225.365 289.484 225.668 289.414 225.975 289.414C226.282 289.414 226.585 289.484 226.86 289.62Z" fill="#263238"/>
<path d="M214 297.07C214.099 297.111 214.184 297.18 214.244 297.269C214.304 297.358 214.336 297.463 214.336 297.57C214.336 297.677 214.304 297.782 214.244 297.871C214.184 297.96 214.099 298.029 214 298.07C213.725 298.206 213.422 298.276 213.115 298.276C212.808 298.276 212.505 298.206 212.23 298.07C212.131 298.029 212.046 297.96 211.986 297.871C211.926 297.782 211.894 297.677 211.894 297.57C211.894 297.463 211.926 297.358 211.986 297.269C212.046 297.18 212.131 297.111 212.23 297.07C212.505 296.934 212.808 296.864 213.115 296.864C213.422 296.864 213.725 296.934 214 297.07Z" fill="#263238"/>
<path d="M305.26 274.26C305.551 274.45 305.793 274.705 305.967 275.006C306.14 275.306 306.241 275.643 306.26 275.99C306.26 276.63 305.81 276.89 305.26 276.57C304.968 276.379 304.725 276.122 304.551 275.82C304.377 275.518 304.278 275.178 304.26 274.83C304.25 274.19 304.7 273.94 305.26 274.26Z" fill="#263238"/>
<path d="M305.26 289C305.55 289.191 305.791 289.446 305.965 289.747C306.138 290.047 306.239 290.384 306.26 290.73C306.26 291.37 305.81 291.63 305.26 291.31C304.968 291.122 304.725 290.867 304.551 290.566C304.377 290.265 304.278 289.927 304.26 289.58C304.25 289 304.7 288.71 305.26 289Z" fill="#263238"/>
<path d="M305.26 303.8C305.551 303.992 305.793 304.249 305.967 304.551C306.141 304.853 306.241 305.192 306.26 305.54C306.26 306.18 305.81 306.44 305.26 306.12C304.968 305.929 304.725 305.672 304.551 305.37C304.377 305.068 304.278 304.728 304.26 304.38C304.25 303.74 304.7 303.48 305.26 303.8Z" fill="#263238"/>
<path d="M297 316C297.104 316.036 297.193 316.104 297.257 316.194C297.32 316.283 297.354 316.39 297.354 316.5C297.354 316.61 297.32 316.717 297.257 316.806C297.193 316.896 297.104 316.964 297 317C296.729 317.143 296.427 317.217 296.12 317.217C295.813 317.217 295.511 317.143 295.24 317C294.75 316.72 294.75 316.27 295.24 316C295.514 315.866 295.815 315.796 296.12 315.796C296.425 315.796 296.726 315.866 297 316Z" fill="#263238"/>
<path d="M284.21 323.4C284.309 323.441 284.394 323.51 284.454 323.599C284.514 323.688 284.546 323.793 284.546 323.9C284.546 324.007 284.514 324.112 284.454 324.201C284.394 324.29 284.309 324.359 284.21 324.4C283.936 324.534 283.635 324.604 283.33 324.604C283.025 324.604 282.724 324.534 282.45 324.4C282.351 324.359 282.266 324.29 282.206 324.201C282.146 324.112 282.114 324.007 282.114 323.9C282.114 323.793 282.146 323.688 282.206 323.599C282.266 323.51 282.351 323.441 282.45 323.4C282.724 323.266 283.025 323.196 283.33 323.196C283.635 323.196 283.936 323.266 284.21 323.4Z" fill="#263238"/>
<path d="M271.38 330.85C271.479 330.891 271.564 330.96 271.624 331.049C271.684 331.138 271.716 331.243 271.716 331.35C271.716 331.457 271.684 331.562 271.624 331.651C271.564 331.74 271.479 331.809 271.38 331.85C271.106 331.984 270.805 332.054 270.5 332.054C270.195 332.054 269.894 331.984 269.62 331.85C269.521 331.809 269.436 331.74 269.376 331.651C269.316 331.562 269.284 331.457 269.284 331.35C269.284 331.243 269.316 331.138 269.376 331.049C269.436 330.96 269.521 330.891 269.62 330.85C269.894 330.716 270.195 330.646 270.5 330.646C270.805 330.646 271.106 330.716 271.38 330.85Z" fill="#263238"/>
<path d="M88.75 158.66V348.99L84.89 346.76V156.39L88.75 158.66Z" fill="#263238"/>
<path d="M94.92 155.06V345.43L88.75 348.99V158.66L94.92 155.06Z" fill="#37474F"/>
<path d="M94.92 155.06L88.75 158.66L84.89 156.39L91.06 152.83L94.92 155.06Z" fill="#455A64"/>
<path d="M73.66 177.86L108 158C109.27 157.27 110.3 157.86 110.3 159.33V209C110.259 209.801 110.029 210.58 109.629 211.276C109.23 211.971 108.671 212.562 108 213L73.66 232.81C72.39 233.55 71.36 232.95 71.36 231.48V181.85C71.4035 181.051 71.6344 180.274 72.034 179.581C72.4335 178.887 72.9905 178.298 73.66 177.86V177.86Z" fill="#FF923F"/>
<path d="M105.13 181.45L103.57 182.35C103.506 182.392 103.453 182.448 103.415 182.514C103.377 182.58 103.355 182.654 103.35 182.73V186.35V188L102.67 188.38V176.75C102.67 174.7 101.23 173.87 99.46 174.89L82.19 184.89C81.2638 185.501 80.4931 186.321 79.9393 187.282C79.3855 188.244 79.0639 189.322 79 190.43V202L78.32 202.4V200.79V197.17C78.32 197.03 78.23 196.97 78.11 197.04L76.55 197.94C76.4863 197.982 76.4332 198.038 76.395 198.104C76.3568 198.17 76.3346 198.244 76.33 198.32V201.64C76.33 202.15 76.69 202.36 77.13 202.1L77.55 201.86V202.86C77.55 203.35 77.89 203.54 78.31 203.3L79 202.9V211.08H78.91C78.6573 211.246 78.447 211.47 78.2959 211.732C78.1448 211.994 78.0572 212.288 78.04 212.59V212.88C78.04 214.21 78.97 214.75 80.12 214.08L80.56 213.83V216C80.56 216.36 80.81 216.5 81.12 216.32L83.82 214.76C83.9888 214.652 84.1288 214.504 84.228 214.33C84.3273 214.156 84.3829 213.96 84.39 213.76V211.64L97.31 204.18V206.3C97.31 206.66 97.56 206.8 97.87 206.62L100.57 205.06C100.739 204.952 100.879 204.804 100.978 204.63C101.077 204.456 101.133 204.26 101.14 204.06V202L101.57 201.75C102.176 201.354 102.681 200.821 103.042 200.194C103.404 199.567 103.612 198.863 103.65 198.14V197.85C103.65 197.3 103.27 197.07 102.79 197.35L102.69 197.4V189.22L103.38 188.82C103.601 188.677 103.785 188.484 103.917 188.256C104.049 188.028 104.125 187.773 104.14 187.51V186.51L104.56 186.27C104.792 186.114 104.986 185.907 105.124 185.664C105.263 185.421 105.344 185.149 105.36 184.87V181.55C105.34 181.44 105.25 181.38 105.13 181.45ZM101.75 192.15C101.722 192.614 101.586 193.065 101.353 193.468C101.121 193.871 100.798 194.214 100.41 194.47C99.67 194.9 99.07 194.55 99.07 193.7C99.0968 193.234 99.2318 192.781 99.4644 192.377C99.6971 191.972 100.021 191.627 100.41 191.37C101.15 190.94 101.75 191.29 101.75 192.15V192.15ZM99.91 176.47C100.37 176.2 100.75 176.42 100.75 176.95C100.732 177.24 100.647 177.523 100.501 177.774C100.356 178.026 100.153 178.24 99.91 178.4C99.45 178.67 99.07 178.4 99.07 177.92C99.0852 177.629 99.1693 177.346 99.3153 177.094C99.4614 176.842 99.6652 176.628 99.91 176.47V176.47ZM100.75 182.35V188C100.742 188.136 100.703 188.268 100.635 188.386C100.567 188.504 100.473 188.605 100.36 188.68L91.23 194V184.9L98.23 180.9C99.61 180.06 100.75 180.72 100.75 182.35V182.35ZM98 197.52L83.59 205.84V205.17L98 196.85V197.52ZM98 193.61V194.39L83.59 202.71V201.93L98 193.61ZM98 196L83.59 204.32V203.65L98 195.29V196ZM84.37 185.59C84.3726 185.524 84.3913 185.459 84.4243 185.402C84.4574 185.344 84.504 185.296 84.56 185.26L97.09 178C97.2 177.94 97.29 178 97.29 178.11V179.75C97.2855 179.817 97.2649 179.882 97.2301 179.939C97.1953 179.997 97.1473 180.045 97.09 180.08L84.56 187.32C84.45 187.38 84.37 187.32 84.37 187.21V185.59ZM81.74 187C82.2 186.73 82.58 186.95 82.58 187.48C82.564 187.771 82.4795 188.054 82.3336 188.306C82.1876 188.558 81.9842 188.771 81.74 188.93C81.28 189.2 80.9 188.98 80.9 188.45C80.916 188.159 81.0004 187.876 81.1464 187.624C81.2924 187.372 81.4957 187.159 81.74 187V187ZM80.9 193.85C80.9485 192.965 81.2046 192.104 81.6476 191.336C82.0906 190.568 82.708 189.915 83.45 189.43L90.45 185.43V194.5L81.33 199.77C81.11 199.89 80.93 199.77 80.93 199.54L80.9 193.85ZM81.24 202.48C81.98 202.05 82.59 202.4 82.59 203.25C82.5621 203.717 82.4255 204.17 82.1911 204.575C81.9567 204.98 81.631 205.324 81.24 205.58C80.5 206.01 79.9 205.66 79.9 204.8C79.9222 204.329 80.055 203.87 80.2879 203.46C80.5207 203.05 80.8469 202.7 81.24 202.44V202.48ZM84.82 206.86C84.35 207.13 83.94 207.04 83.75 206.7L97.91 198.52C97.7209 199.097 97.3396 199.591 96.83 199.92L84.82 206.86Z" fill="white"/>
<path d="M293.8 331.44C295.31 331.05 303.36 326.44 304.18 325.91C305 325.38 306.62 324.2 306.62 322.22C306.62 320.45 306.44 303.87 305 295.86C304.524 293.367 303.544 290.997 302.12 288.896C300.697 286.795 298.859 285.006 296.72 283.64C291.72 280.54 286.72 278.29 282.43 280.05C278.14 281.81 274.32 285.05 272.65 288.97C270.98 292.89 269.83 300.73 269.72 303.76C269.61 306.79 269.72 317.19 269.72 318.11C269.72 319.03 269.88 320.24 274.86 323.32C279.84 326.4 286.7 330.1 288.86 331.05C290.426 331.692 292.153 331.828 293.8 331.44V331.44Z" fill="#FF923F"/>
<path d="M295 285.8C295.46 286.06 296.79 285.41 297 285.08C297.27 283.458 297.011 281.793 296.26 280.33C295.26 278.76 289.08 275.87 287.55 276.08C286.977 276.173 286.43 276.383 285.942 276.696C285.453 277.009 285.034 277.419 284.71 277.9C284.52 278.3 284.31 280.95 284.71 281.49C285.11 282.03 286.52 281.2 286.64 280.97C286.76 280.74 286.18 278.8 287.18 278.4C288.18 278 292.39 279.86 294.18 281.34C294.94 281.98 294.9 283.57 294.87 284.34C294.84 285.11 294.81 285.66 295 285.8Z" fill="#FF923F"/>
<path opacity="0.1" d="M295 285.8C295.46 286.06 296.79 285.41 297 285.08C297.27 283.458 297.011 281.793 296.26 280.33C295.26 278.76 289.08 275.87 287.55 276.08C286.977 276.173 286.43 276.383 285.942 276.696C285.453 277.009 285.034 277.419 284.71 277.9C284.52 278.3 284.31 280.95 284.71 281.49C285.11 282.03 286.52 281.2 286.64 280.97C286.76 280.74 286.18 278.8 287.18 278.4C288.18 278 292.39 279.86 294.18 281.34C294.94 281.98 294.9 283.57 294.87 284.34C294.84 285.11 294.81 285.66 295 285.8Z" fill="black"/>
<path opacity="0.1" d="M296.29 304.48C295.4 295.86 293.8 290.83 285.37 287.07C276.94 283.31 273.67 286.52 272.48 289.39C270.9 293.39 269.83 300.83 269.72 303.76C269.61 306.69 269.72 317.19 269.72 318.11C269.72 319.03 269.88 320.24 274.86 323.32C279.84 326.4 286.7 330.1 288.86 331.05C290.444 331.704 292.194 331.841 293.86 331.44C294.203 331.336 294.537 331.206 294.86 331.05C297.4 327.7 297.1 312.34 296.29 304.48Z" fill="black"/>
<path opacity="0.1" d="M276.64 283.71C278.84 282.42 282.45 281.57 287.75 283.93C297.23 288.15 299.64 293.44 300.59 302.7C300.77 304.4 301.02 306.42 301.13 308.6L301.91 308.13C301.8 305.78 301.58 303.77 301.38 301.95C300.38 292.6 297.53 287.44 288.47 283.4C283.47 281.17 280.16 281.47 277.98 282.56C277.514 282.92 277.067 283.304 276.64 283.71V283.71Z" fill="black"/>
<path d="M276.31 284C278.51 282.71 282.12 281.86 287.42 284.22C296.9 288.44 299.31 293.73 300.26 302.99C300.44 304.69 300.69 306.71 300.8 308.89L301.58 308.42C301.47 306.07 301.25 304.06 301.05 302.24C300.05 292.89 297.2 287.73 288.14 283.69C283.14 281.46 279.74 281.83 277.57 282.93C277.128 283.26 276.708 283.618 276.31 284Z" fill="white"/>
<path d="M279.38 292.14L282.24 290.5C282.383 290.423 282.55 290.404 282.706 290.446C282.863 290.489 282.997 290.591 283.08 290.73L286.02 295.84C286.061 295.91 286.087 295.988 286.098 296.068C286.108 296.148 286.103 296.23 286.081 296.308C286.06 296.386 286.023 296.46 285.973 296.523C285.923 296.587 285.861 296.641 285.79 296.68L283 298.33C282.859 298.411 282.692 298.433 282.535 298.392C282.378 298.35 282.243 298.249 282.16 298.11L279.16 292.97C279.119 292.901 279.092 292.825 279.081 292.746C279.07 292.667 279.075 292.586 279.095 292.509C279.116 292.431 279.151 292.359 279.2 292.296C279.249 292.232 279.31 292.179 279.38 292.14V292.14Z" fill="#37474F"/>
<path d="M282.45 297.75L279.63 292.88C279.609 292.845 279.595 292.807 279.589 292.767C279.583 292.727 279.585 292.686 279.595 292.646C279.605 292.607 279.623 292.57 279.648 292.538C279.673 292.506 279.704 292.48 279.74 292.46L282.34 290.98C282.411 290.942 282.494 290.932 282.571 290.953C282.649 290.973 282.717 291.022 282.76 291.09L285.54 295.94C285.561 295.975 285.575 296.013 285.581 296.053C285.587 296.093 285.585 296.134 285.575 296.174C285.565 296.213 285.546 296.25 285.522 296.282C285.497 296.314 285.465 296.34 285.43 296.36L282.87 297.86C282.799 297.898 282.716 297.908 282.638 297.887C282.561 297.867 282.493 297.818 282.45 297.75V297.75Z" fill="#455A64"/>
<path d="M281.84 295.42C281.765 295.374 281.701 295.311 281.654 295.237C281.608 295.162 281.579 295.078 281.57 294.99V292.66C281.57 292.51 281.69 292.46 281.84 292.54C281.916 292.585 281.982 292.648 282.03 292.722C282.079 292.797 282.109 292.882 282.12 292.97V295.3C282.12 295.45 282 295.5 281.84 295.42Z" fill="#37474F"/>
<path d="M283.36 296.29C283.284 296.245 283.219 296.183 283.172 296.108C283.125 296.033 283.097 295.948 283.09 295.86V293.53C283.09 293.38 283.21 293.33 283.36 293.42C283.435 293.466 283.499 293.529 283.546 293.603C283.592 293.678 283.621 293.762 283.63 293.85V296.18C283.63 296.33 283.51 296.38 283.36 296.29Z" fill="#37474F"/>
<path d="M300.62 307C300.377 307.896 300.219 308.814 300.15 309.74C300.15 309.93 300.4 310.03 300.48 310.03C301.078 309.902 301.631 309.615 302.08 309.2C301.997 308.41 301.853 307.628 301.65 306.86L300.62 307Z" fill="#263238"/>
<path d="M301.08 307.24C301.632 307.24 302.08 306.792 302.08 306.24C302.08 305.688 301.632 305.24 301.08 305.24C300.528 305.24 300.08 305.688 300.08 306.24C300.08 306.792 300.528 307.24 301.08 307.24Z" fill="#263238"/>
<path opacity="0.1" d="M287.58 278.35C286.49 278.25 285.46 278.35 285.2 279.44C284.96 280.164 284.96 280.946 285.2 281.67C285.753 281.601 286.268 281.356 286.67 280.97C286.8 280.73 286.21 278.8 287.21 278.4C287.332 278.377 287.458 278.377 287.58 278.4V278.35Z" fill="black"/>
<path d="M298.72 314L304.54 310.61C304.696 310.524 304.873 310.484 305.05 310.497C305.228 310.509 305.398 310.573 305.54 310.68C306.73 311.745 307.521 313.184 307.78 314.76C308.63 318.45 308.4 323.33 307.45 323.89L301.15 327.56C300.21 328.12 298.87 326.95 298.53 326.56C297.89 325.73 298.06 317 298.72 314Z" fill="#FF923F"/>
<path opacity="0.1" d="M298.72 314C298.72 314 299.91 315 300.72 318.67C301.53 322.34 302.1 327.01 301.15 327.56C300.2 328.11 298.87 326.95 298.53 326.56C297.89 325.73 298.06 317 298.72 314Z" fill="black"/>
<path opacity="0.1" d="M305.27 311.23C305.97 311.58 307.14 312.51 307.66 315.01C307.749 315.35 307.741 315.709 307.637 316.044C307.533 316.38 307.336 316.68 307.07 316.91C306.59 317.25 304.41 318.29 303.07 319.1C301.89 319.81 301.28 318.87 301.02 318.29C300.59 317.29 300.21 316.44 299.88 315.82C299.634 315.141 299.249 314.521 298.75 314L304.36 311.28C304.497 311.2 304.651 311.154 304.809 311.145C304.967 311.137 305.125 311.166 305.27 311.23V311.23Z" fill="black"/>
<path d="M304.62 310.56C304.765 310.483 304.926 310.443 305.09 310.443C305.254 310.443 305.415 310.483 305.56 310.56C306.25 310.9 307.43 311.84 307.95 314.34C308.041 314.679 308.034 315.036 307.929 315.371C307.825 315.705 307.627 316.003 307.36 316.23C306.88 316.57 304.7 317.61 303.36 318.43C302.18 319.13 301.57 318.2 301.31 317.61C299.88 314.61 298.75 314.03 298.75 314.03L304.62 310.56Z" fill="#FF923F"/>
<path opacity="0.4" d="M304.62 310.56C304.765 310.483 304.926 310.443 305.09 310.443C305.254 310.443 305.415 310.483 305.56 310.56C306.25 310.9 307.43 311.84 307.95 314.34C308.041 314.679 308.034 315.036 307.929 315.371C307.825 315.705 307.627 316.003 307.36 316.23C306.88 316.57 304.7 317.61 303.36 318.43C302.18 319.13 301.57 318.2 301.31 317.61C299.88 314.61 298.75 314.03 298.75 314.03L304.62 310.56Z" fill="white"/>
<path d="M273.43 305.88L290.73 315.88V316.9L273.43 306.9V305.88Z" fill="white"/>
<path opacity="0.1" d="M273.43 307.5L290.73 317.49V316.9L273.43 306.9V307.5Z" fill="black"/>
<path d="M291.3 317.33C291.539 318.227 291.693 319.144 291.76 320.07C291.76 320.26 291.51 320.36 291.44 320.36C290.842 320.232 290.289 319.945 289.84 319.53C289.923 318.74 290.067 317.958 290.27 317.19L291.3 317.33Z" fill="#263238"/>
<path d="M290.84 317.6C291.392 317.6 291.84 317.152 291.84 316.6C291.84 316.048 291.392 315.6 290.84 315.6C290.288 315.6 289.84 316.048 289.84 316.6C289.84 317.152 290.288 317.6 290.84 317.6Z" fill="#263238"/>
<path d="M309.3 406.9L302.3 406.18L303.75 395.48L311.33 396.19L309.3 406.9Z" fill="#FFA8A7"/>
<path d="M302.89 401.84L303.02 400.89C302.33 401.15 298.46 408.2 296.09 411.12C293.72 414.04 289.73 416.69 288.86 418.9C287.99 421.11 293.86 422.66 295.93 422.39C298.35 422.07 302.58 420.58 303.69 419.06C304.8 417.54 305.4 415.27 306.3 414.16C307.2 413.05 310.68 410.73 311.22 408.82C311.369 407.113 311.282 405.393 310.96 403.71C310.7 402.46 310.81 401.09 310.38 401.19L310.19 402.19C309.66 402.73 307.98 402.96 306.39 402.94C305.37 403 302.84 402.62 302.89 401.84Z" fill="#263238"/>
<path d="M285.6 393.05L278.2 392.3L282.02 380.78L289.87 380.57L285.6 393.05Z" fill="#FFA8A7"/>
<path d="M279 389.83C278.65 389.83 278.11 390.22 277.18 391.02C274.669 392.781 272.051 394.385 269.34 395.82C266.83 397.08 261.96 399.01 259.76 400C258.38 400.62 258.44 402.28 259.87 403.23C261.173 404.149 262.646 404.8 264.204 405.143C265.761 405.486 267.371 405.516 268.94 405.23C271.19 404.73 278.29 400.87 280.15 400.99C282.01 401.11 285.46 401.07 286.83 400.13C288.2 399.19 287.57 395.85 287.18 394.13C286.76 392.24 287.12 390.23 286.49 390.36L286.05 391.65C285.25 392.87 278.57 391.92 278.67 390.82L279 389.83Z" fill="#263238"/>
<path d="M347 330.27C348.47 340.6 346.49 342.59 336.67 352.49C331.38 357.82 320.21 365.23 320.21 365.23C320.769 369.594 320.383 374.028 319.08 378.23C316.69 386.05 310.76 399.82 310.76 399.82C309.499 400.303 308.153 400.525 306.804 400.473C305.455 400.422 304.13 400.097 302.91 399.52C302.91 399.52 304.7 388.03 305.53 379.81C306.83 366.81 307.96 362.45 308.53 360.05C309.03 357.94 320.33 346.15 322.63 342.61L299.79 354C299.79 354 299.68 361 298.3 364.84C294.73 374.64 287.18 389.54 287.18 389.54C287.18 389.54 281.43 390.12 279.02 388.24C279.02 388.24 286.34 352.34 287.25 349.3C288.85 344 308.2 330.09 312.16 326.74C314.42 324.82 316.95 322.74 316.95 322.74L347 330.27Z" fill="#37474F"/>
<path d="M347 330.27L340.95 328.77L341.13 330.64C341.057 337.908 338.138 344.859 333 350C324.41 358.47 317.09 363.42 316.66 365.25C316.23 367.08 315.73 382.89 308 400.42C308.938 400.342 309.86 400.134 310.74 399.8C310.74 399.8 316.67 386.03 319.06 378.21C320.363 374.008 320.749 369.574 320.19 365.21C320.19 365.21 331.36 357.8 336.65 352.47C346.47 342.59 348.45 340.6 347 330.27Z" fill="#263238"/>
<path d="M322.61 342.57C320.374 340.762 318.693 338.36 317.76 335.64C317.876 337.413 318.127 339.175 318.51 340.91C319.09 343.21 299.79 354.04 299.79 354.04L322.61 342.57Z" fill="#263238"/>
<path d="M318.21 303.36C318.21 303.36 304.58 289.92 302.09 287.69C298.858 285.199 294.787 284.055 290.73 284.5C287.21 285.1 287.4 287.8 290.45 289.09C295.45 291.21 296.99 293.16 296.86 293.38C296.73 293.6 293.25 291.94 291.77 292.77C290.29 293.6 291.06 294.66 291.77 294.86C292.48 295.06 295.52 296.49 297.15 296.99C298.78 297.49 301.15 297.53 303.37 299.08C305.59 300.63 314.3 314 318 316.14C321.7 318.28 322.2 303.66 322.2 303.66L318.21 303.36Z" fill="#FFA8A7"/>
<path d="M327.09 282.54C323.71 282.09 321.21 282.81 319.23 285.86C317.25 288.91 316.09 301.28 316.09 301.28C316.09 301.28 316.8 304.28 319.09 305.28C321.38 306.28 327.09 282.54 327.09 282.54Z" fill="#E0E0E0"/>
<path d="M345.14 288.29C345.14 288.29 347.48 290.21 347.48 296.29V309.4L347.15 331.4C342.46 336.5 321.36 334.57 316.15 323.4C316.15 323.4 316.91 299.85 317.61 294.69C318.61 287.69 320.33 282.62 327.09 282.47L337.41 284.87L345.14 288.29Z" fill="#F0F0F0"/>
<path d="M351.27 352C350.489 353.016 349.491 353.846 348.35 354.43C346.854 355.074 345.225 355.352 343.6 355.24C342.885 355.247 342.175 355.115 341.51 354.85C341.215 354.733 340.949 354.554 340.729 354.324C340.51 354.094 340.343 353.82 340.24 353.52C340.14 352.92 340.76 352.41 341.18 352.07C341.885 351.459 342.537 350.79 343.13 350.07C343.43 349.73 343.73 349.38 344 349.01C344.27 348.64 344.6 348.01 344.9 347.6C345.07 347.35 345.5 346.6 345.08 346.42C344.909 346.355 344.721 346.355 344.55 346.42C344.01 346.55 343.49 346.74 342.94 346.86C342.397 346.994 341.827 346.966 341.3 346.78C341.178 346.74 341.066 346.675 340.972 346.589C340.877 346.503 340.801 346.397 340.75 346.28C340.713 346.158 340.706 346.028 340.73 345.903C340.755 345.777 340.809 345.659 340.89 345.56C341.047 345.357 341.236 345.181 341.45 345.04L343.32 343.66C344.55 342.74 346.01 342.19 346.92 340.87C347.473 339.867 347.813 338.761 347.92 337.62C348.64 333.93 349.41 319.36 349.41 319.36L344.65 302.41C344.65 302.41 340.25 293.32 345.13 288.34C347.38 289.34 350.02 289.14 352.91 299.13C354.98 306.3 358.6 315.96 358.6 319.13C358.595 320.473 358.465 321.812 358.21 323.13C356.88 330.13 355.54 336.21 354.35 343.26C354.25 343.87 354.27 344.48 354.16 345.07C353.42 349.26 352.06 351 351.27 352Z" fill="#FFA8A7"/>
<path d="M345.14 288.29C346.845 288.573 348.417 289.389 349.63 290.62C351.624 293.366 353.083 296.463 353.93 299.75C355.1 304.08 356.93 309.62 356.93 309.62C355.632 310.922 354.063 311.921 352.334 312.547C350.606 313.172 348.76 313.409 346.93 313.24L343.35 301.58C343.35 301.58 339.93 291.32 345.14 288.29Z" fill="#E0E0E0"/>
<path d="M335.387 266.14C336.592 261.034 333.43 255.917 328.323 254.712C323.217 253.507 318.1 256.669 316.895 261.776C315.69 266.882 318.852 271.999 323.959 273.204C329.065 274.409 334.182 271.247 335.387 266.14Z" fill="#263238"/>
<path d="M341.69 269.64C341.69 269.64 340.24 276.48 339.69 277.64C339.301 278.332 338.66 278.848 337.9 279.08L338 274.27L341.69 269.64Z" fill="#263238"/>
<path d="M339.87 259.83C340.38 259.775 340.897 259.836 341.38 260.009C341.863 260.182 342.301 260.463 342.66 260.83C343.86 262.05 343.19 265.89 341.66 269.65L339 270L339.87 259.83Z" fill="#263238"/>
<path d="M338.13 270C338.68 270.33 339.46 269.27 340.13 268.56C340.397 268.255 340.737 268.024 341.119 267.887C341.5 267.75 341.91 267.712 342.31 267.777C342.71 267.842 343.087 268.008 343.405 268.258C343.724 268.509 343.973 268.836 344.13 269.21C345.26 271.58 343.13 274.71 341.41 275.26C338.41 276.21 337.95 274.26 337.95 274.26L337.72 285.1C335.13 287.99 326.28 287.3 327.95 284.81V281.51C326.608 281.728 325.247 281.798 323.89 281.72C321.68 281.38 320.29 279.63 319.62 277.24C318.55 273.4 318.14 270.3 319.05 262.74C320.05 254.46 329.69 254.37 334.89 257.64C340.09 260.91 338.13 270 338.13 270Z" fill="#FFA8A7"/>
<path d="M338.13 270.88C338.4 270.88 339.46 269.14 340.13 268.52C341.08 267.65 339.86 259.83 339.86 259.83C340.108 259.154 340.153 258.419 339.989 257.718C339.826 257.016 339.461 256.377 338.94 255.88C337.64 254.45 335.47 254.29 331.76 253.71C329.81 253.4 326.86 252.86 324.92 252.49C322.6 252.06 320.67 251.61 319.04 253.03C318.396 253.586 317.941 254.328 317.737 255.154C317.533 255.979 317.59 256.848 317.9 257.64C318.062 258.008 318.285 258.346 318.56 258.64C319.001 259.171 319.578 259.572 320.23 259.8C320.23 259.8 321.23 260.69 324.76 261.12C328.008 261.364 331.273 261.304 334.51 260.94C335.51 260.8 335.75 261.79 336.3 264.49C336.8 266.84 337.2 270.86 338.13 270.88Z" fill="#263238"/>
<path d="M339.86 260.44L343.19 258.66C343.085 258.435 342.935 258.233 342.749 258.068C342.564 257.903 342.346 257.777 342.111 257.698C341.875 257.62 341.625 257.59 341.378 257.611C341.13 257.632 340.889 257.703 340.67 257.82C340.227 258.071 339.896 258.482 339.745 258.969C339.595 259.456 339.636 259.982 339.86 260.44Z" fill="#263238"/>
<path d="M328 281.49C328 281.49 332.93 280.49 334.65 279.58C335.667 279.053 336.5 278.23 337.04 277.22C336.782 278.23 336.319 279.176 335.68 280C334.42 281.62 328 282.81 328 282.81V281.49Z" fill="#F28F8F"/>
<path d="M329.15 268.72C329.15 268.918 329.209 269.111 329.319 269.276C329.428 269.44 329.585 269.568 329.767 269.644C329.95 269.72 330.151 269.739 330.345 269.701C330.539 269.662 330.717 269.567 330.857 269.427C330.997 269.287 331.092 269.109 331.131 268.915C331.169 268.721 331.15 268.52 331.074 268.337C330.998 268.155 330.87 267.998 330.706 267.889C330.541 267.779 330.348 267.72 330.15 267.72C329.885 267.72 329.63 267.825 329.443 268.013C329.255 268.2 329.15 268.455 329.15 268.72Z" fill="#263238"/>
<path d="M330.74 264.63L332.85 265.8C333.002 265.51 333.036 265.171 332.945 264.856C332.854 264.541 332.644 264.274 332.36 264.11C332.22 264.035 332.067 263.988 331.908 263.974C331.75 263.959 331.591 263.977 331.439 264.025C331.288 264.074 331.148 264.152 331.028 264.256C330.908 264.36 330.81 264.487 330.74 264.63V264.63Z" fill="#263238"/>
<path d="M328.41 275.55L326.15 276.4C326.199 276.552 326.279 276.693 326.384 276.813C326.489 276.934 326.617 277.032 326.761 277.102C326.904 277.172 327.061 277.212 327.22 277.221C327.38 277.229 327.54 277.205 327.69 277.15C327.994 277.029 328.24 276.795 328.374 276.496C328.509 276.197 328.521 275.858 328.41 275.55V275.55Z" fill="#F28F8F"/>
<path d="M320.08 265.5L322 264C321.909 263.87 321.792 263.76 321.657 263.676C321.522 263.592 321.371 263.537 321.214 263.514C321.057 263.49 320.896 263.499 320.743 263.54C320.589 263.58 320.445 263.652 320.32 263.75C320.063 263.955 319.894 264.251 319.85 264.577C319.805 264.903 319.888 265.233 320.08 265.5V265.5Z" fill="#263238"/>
<path d="M320.93 268.44C320.93 268.705 321.035 268.96 321.223 269.147C321.41 269.335 321.665 269.44 321.93 269.44C322.195 269.44 322.45 269.335 322.637 269.147C322.825 268.96 322.93 268.705 322.93 268.44C322.93 268.175 322.825 267.92 322.637 267.733C322.45 267.545 322.195 267.44 321.93 267.44C321.665 267.44 321.41 267.545 321.223 267.733C321.035 267.92 320.93 268.175 320.93 268.44Z" fill="#263238"/>
<path d="M325.81 267.65L325.7 273.64L322.15 272.86L325.81 267.65Z" fill="#F28F8F"/>
</svg>
