<svg width="1724" height="424" viewBox="0 0 1724 424" fill="none" xmlns="http://www.w3.org/2000/svg">
<path d="M67.4811 5.94154C58.993 8.9124 45.8363 15.703 38.1969 21.2203C21.6449 33.1038 0 65.7833 0 79.3644C0 91.2479 9.33701 110.771 18.674 118.41C24.6158 123.503 24.6158 125.201 19.0984 132.84C15.7032 137.933 12.7323 149.816 12.7323 159.578C12.7323 174.432 14.8543 179.525 25.4646 188.013C32.2551 193.955 42.0166 200.321 47.1095 201.594C53.9 203.716 55.1733 206.687 53.0512 213.478C46.2607 235.972 46.2607 242.338 53.0512 252.948C56.8709 258.89 66.2079 266.529 73.4229 269.5C84.0331 273.744 87.004 277.564 87.4284 288.174C87.8528 295.813 90.8237 305.15 94.6434 308.97C98.0387 312.79 100.585 322.551 100.585 330.615C100.585 350.987 112.469 359.475 146.846 363.295C184.618 367.114 252.948 362.87 273.744 355.655C289.447 349.713 291.569 350.138 309.819 359.475C322.551 365.841 339.952 370.51 359.475 372.207C385.788 374.329 391.73 373.48 406.585 364.992L423.985 355.231L452.845 364.992C478.31 373.48 486.374 374.329 519.053 371.783C558.099 368.387 565.738 362.446 546.64 350.987C496.135 320.429 475.339 309.819 465.577 309.819C456.665 309.819 454.118 307.697 454.118 300.057C453.694 285.628 443.933 275.866 429.078 275.866C418.468 275.866 415.922 274.169 415.922 266.954C415.922 259.739 413.8 258.465 405.311 259.739C396.399 261.436 394.701 260.163 394.701 252.099C394.701 241.065 364.568 207.961 354.807 207.961C350.562 207.961 349.714 203.292 350.987 189.711C352.684 174.857 350.562 168.49 339.528 151.09C331.888 139.206 321.278 128.596 314.063 126.05C303.877 122.23 302.18 119.683 303.877 110.771C306.848 94.6432 294.116 75.1203 265.256 50.929C235.123 25.4644 226.21 22.4935 197.775 28.4353C177.828 32.6794 175.281 32.2549 165.52 23.3423C142.177 1.27303 100.585 -5.94194 67.4811 5.94154Z" fill="#B4ACAC"/>
<path d="M683.724 8.06356C679.056 12.7321 671.416 30.5573 666.323 47.5337C661.231 64.51 655.713 84.0329 653.167 90.8235C645.952 113.317 647.225 114.59 674.812 114.59H699.852L706.642 89.9746C710.038 76.8179 716.404 58.9927 720.648 50.9289L727.863 36.0746L789.827 34.8014C871.738 33.5281 867.918 28.8596 850.093 104.829C848.395 112.893 849.668 114.59 858.157 114.59C867.069 114.59 869.616 110.346 880.226 77.2423C887.017 56.8707 894.656 39.0455 897.202 37.3478C899.749 35.6502 927.76 33.9526 959.591 33.9526C1034.71 33.9526 1035.14 34.377 1024.95 76.8179C1017.31 107.375 1001.61 160.427 995.241 174.857C992.695 181.647 994.817 182.496 1010.1 182.496C1024.95 182.496 1027.5 181.223 1025.37 175.705C1022.4 168.066 1043.2 85.7305 1055.08 57.2951C1058.9 47.9581 1064 39.0455 1066.97 37.3478C1072.48 33.5282 1173.49 33.1037 1187.5 36.499C1194.71 38.6211 1196.84 42.4408 1196.84 52.2022C1196.84 70.4518 1167.13 173.583 1159.91 180.798C1156.09 184.194 1145.06 186.74 1133.17 186.74C1113.65 186.74 1112.38 187.589 1111.1 198.199L1109.83 210.083L868.767 211.356L627.702 212.205L628.975 230.454L630.249 248.28L777.943 249.553C869.616 249.977 925.213 252.099 925.213 254.646C925.213 256.768 931.58 261.436 939.643 264.831C967.654 276.291 986.753 302.604 999.91 347.591C1001.61 352.684 1022.4 353.109 1136.15 350.987C1209.99 349.289 1296.57 348.016 1328.83 348.016H1386.97L1389.52 334.01C1393.34 313.214 1414.13 282.657 1432.38 271.622C1454.03 258.041 1503.26 254.646 1524.06 265.256C1552.07 279.261 1572.86 305.575 1580.08 335.708C1582.62 346.318 1584.32 346.743 1621.67 349.289C1677.27 353.533 1705.28 353.109 1715.04 348.016C1722.68 343.772 1723.1 338.254 1723.1 273.32C1723.1 208.809 1722.26 201.17 1712.07 172.735C1672.6 62.388 1666.23 36.499 1676.42 33.1037C1678.97 32.2549 1681.94 24.6155 1683.63 15.7029L1686.18 -0.000230503H1188.77C702.398 -0.000230503 691.788 -0.000223926 683.724 8.06356ZM1355.56 38.1966C1362.78 40.7431 1366.6 45.4116 1366.6 50.9289C1366.6 59.8415 1341.98 148.968 1333.07 170.613C1327.55 185.467 1313.97 188.013 1250.74 185.891C1181.98 184.194 1183.68 187.589 1207.02 106.527C1217.21 70.8762 1228.24 39.8943 1231.21 37.7722C1239.28 32.6793 1341.98 33.1037 1355.56 38.1966ZM1499.86 43.2896C1505.38 50.9289 1506.65 65.3589 1506.65 112.468C1506.65 145.148 1504.53 174.857 1502.41 178.252C1499.02 183.345 1486.71 184.618 1432.38 184.618C1358.54 184.618 1356.41 183.769 1360.66 157.031C1363.63 140.055 1391.22 52.6266 1397.16 41.1675C1400.13 34.8014 1407.34 33.9526 1447.24 33.9526C1490.1 33.9526 1493.92 34.8014 1499.86 43.2896ZM1643.74 40.3187C1650.53 46.6848 1669.2 92.9455 1685.33 143.45C1692.97 167.642 1693.82 175.281 1689.58 179.525C1683.63 185.467 1539.33 187.164 1533.39 181.223C1531.7 179.101 1530 147.27 1530 109.922C1530 54.3242 1531.27 41.5919 1536.36 38.1966C1539.76 36.0746 1563.95 33.9526 1590.26 33.9526C1626.34 33.9526 1639.07 35.2258 1643.74 40.3187Z" fill="#F8A21E"/>
<path d="M634.917 155.759C633.22 162.549 631.098 171.037 629.824 174.857C627.702 181.648 631.098 182.496 658.684 182.496H689.666L690.091 163.398L690.515 144.299H664.202C638.737 144.299 637.464 144.724 634.917 155.759Z" fill="#F8A21E"/>
<path d="M831.418 163.398L824.203 182.496H840.331C856.459 182.496 856.459 182.496 858.156 163.398C859.43 145.573 859.005 144.299 848.819 144.299C839.907 144.299 836.936 147.695 831.418 163.398Z" fill="#F8A21E"/>
<path d="M629.4 303.877C631.097 320.429 634.917 335.284 638.737 339.528C647.649 349.714 692.637 353.533 752.903 349.714L800.437 347.167L808.076 326.371C811.896 314.912 821.233 298.784 828.448 290.721L841.18 275.866H734.229H626.853L629.4 303.877Z" fill="#F8A21E"/>
<path d="M877.255 286.052C845.849 297.511 831.843 318.307 831.843 353.533C831.843 370.51 834.39 380.271 841.605 390.457C857.732 414.648 871.738 422.288 899.749 422.288C927.76 422.288 941.765 414.648 958.317 390.033C966.806 377.725 968.079 371.359 966.806 349.289C965.532 331.04 962.561 319.156 956.195 311.092C938.37 286.477 904.842 275.866 877.255 286.052Z" fill="#F8A21E"/>
<path d="M1462.94 286.052C1428.56 298.785 1415.83 320.005 1418.38 359.9C1420.08 385.364 1421.35 388.335 1437.48 403.614C1501.56 463.031 1590.69 380.696 1539.76 308.546C1523.63 286.052 1490.1 276.291 1462.94 286.052Z" fill="#F8A21E"/>
</svg>
