<svg width="406" height="100" viewBox="0 0 406 100" fill="none" xmlns="http://www.w3.org/2000/svg">
<path d="M15.9 1.39996C13.9 2.09996 10.8 3.69996 9 4.99996C5.1 7.79996 0 15.5 0 18.7C0 21.5 2.2 26.1 4.4 27.9C5.8 29.1 5.8 29.5 4.5 31.3C3.7 32.5 3 35.3 3 37.6C3 41.1 3.5 42.3 6 44.3C7.6 45.7 9.9 47.2 11.1 47.5C12.7 48 13 48.7 12.5 50.3C10.9 55.6 10.9 57.1 12.5 59.6C13.4 61 15.6 62.8 17.3 63.5C19.8 64.5 20.5 65.4 20.6 67.9C20.7 69.7 21.4 71.9 22.3 72.8C23.1 73.7 23.7 76 23.7 77.9C23.7 82.7 26.5 84.7 34.6 85.6C43.5 86.5 59.6 85.5 64.5 83.8C68.2 82.4 68.7 82.5 73 84.7C76 86.2 80.1 87.3 84.7 87.7C90.9 88.2 92.3 88 95.8 86L99.9 83.7L106.7 86C112.7 88 114.6 88.2 122.3 87.6C131.5 86.8 133.3 85.4 128.8 82.7C116.9 75.5 112 73 109.7 73C107.6 73 107 72.5 107 70.7C106.9 67.3 104.6 65 101.1 65C98.6 65 98 64.6 98 62.9C98 61.2 97.5 60.9 95.5 61.2C93.4 61.6 93 61.3 93 59.4C93 56.8 85.9 49 83.6 49C82.6 49 82.4 47.9 82.7 44.7C83.1 41.2 82.6 39.7 80 35.6C78.2 32.8 75.7 30.3 74 29.7C71.6 28.8 71.2 28.2 71.6 26.1C72.3 22.3 69.3 17.7 62.5 12C55.4 5.99996 53.3 5.29996 46.6 6.69996C41.9 7.69996 41.3 7.59996 39 5.49996C33.5 0.299956 23.7 -1.40004 15.9 1.39996Z" fill="#B4ACAC"/>
<path d="M161.1 1.89999C160 2.99999 158.2 7.19999 157 11.2C155.8 15.2 154.5 19.8 153.9 21.4C152.2 26.7 152.5 27 159 27H164.9L166.5 21.2C167.3 18.1 168.8 13.9 169.8 12L171.5 8.49999L186.1 8.19999C205.4 7.89999 204.5 6.79999 200.3 24.7C199.9 26.6 200.2 27 202.2 27C204.3 27 204.9 26 207.4 18.2C209 13.4 210.8 9.2 211.4 8.8C212 8.4 218.6 7.99999 226.1 7.99999C243.8 7.99999 243.9 8.09999 241.5 18.1C239.7 25.3 236 37.8 234.5 41.2C233.9 42.8 234.4 43 238 43C241.5 43 242.1 42.7 241.6 41.4C240.9 39.6 245.8 20.2 248.6 13.5C249.5 11.3 250.7 9.2 251.4 8.8C252.7 7.9 276.5 7.79999 279.8 8.59999C281.5 9.09999 282 10 282 12.3C282 16.6 275 40.9 273.3 42.6C272.4 43.4 269.8 44 267 44C262.4 44 262.1 44.2 261.8 46.7L261.5 49.5L204.7 49.8L147.9 50L148.2 54.3L148.5 58.5L183.3 58.8C204.9 58.9 218 59.4 218 60C218 60.5 219.5 61.6 221.4 62.4C228 65.1 232.5 71.3 235.6 81.9C236 83.1 240.9 83.2 267.7 82.7C285.1 82.3 305.5 82 313.1 82H326.8L327.4 78.7C328.3 73.8 333.2 66.6 337.5 64C342.6 60.8 354.2 60 359.1 62.5C365.7 65.8 370.6 72 372.3 79.1C372.9 81.6 373.3 81.7 382.1 82.3C395.2 83.3 401.8 83.2 404.1 82C405.9 81 406 79.7 406 64.4C406 49.2 405.8 47.4 403.4 40.7C394.1 14.7 392.6 8.6 395 7.8C395.6 7.6 396.3 5.79999 396.7 3.69999L397.3 -7.62939e-06H280.1C165.5 -7.62939e-06 163 -6.07967e-06 161.1 1.89999ZM319.4 8.99999C321.1 9.59999 322 10.7 322 12C322 14.1 316.2 35.1 314.1 40.2C312.8 43.7 309.6 44.3 294.7 43.8C278.5 43.4 278.9 44.2 284.4 25.1C286.8 16.7 289.4 9.39999 290.1 8.89999C292 7.69999 316.2 7.79999 319.4 8.99999ZM353.4 10.2C354.7 12 355 15.4 355 26.5C355 34.2 354.5 41.2 354 42C353.2 43.2 350.3 43.5 337.5 43.5C320.1 43.5 319.6 43.3 320.6 37C321.3 33 327.8 12.4 329.2 9.69999C329.9 8.19999 331.6 7.99999 341 7.99999C351.1 7.99999 352 8.19999 353.4 10.2ZM387.3 9.49999C388.9 11 393.3 21.9 397.1 33.8C398.9 39.5 399.1 41.3 398.1 42.3C396.7 43.7 362.7 44.1 361.3 42.7C360.9 42.2 360.5 34.7 360.5 25.9C360.5 12.8 360.8 9.79999 362 8.99999C362.8 8.49999 368.5 7.99999 374.7 7.99999C383.2 7.99999 386.2 8.29999 387.3 9.49999Z" fill="#F8A21E"/>
<path d="M149.6 36.7C149.2 38.3 148.7 40.3 148.4 41.2C147.9 42.8 148.7 43 155.2 43H162.5L162.6 38.5L162.7 34H156.5C150.5 34 150.2 34.1 149.6 36.7Z" fill="#F8A21E"/>
<path d="M195.9 38.5L194.2 43H198C201.8 43 201.8 43 202.2 38.5C202.5 34.3 202.4 34 200 34C197.9 34 197.2 34.8 195.9 38.5Z" fill="#F8A21E"/>
<path d="M148.3 71.6C148.7 75.5 149.6 79 150.5 80C152.6 82.4 163.2 83.3 177.4 82.4L188.6 81.8L190.4 76.9C191.3 74.2 193.5 70.4 195.2 68.5L198.2 65H173H147.7L148.3 71.6Z" fill="#F8A21E"/>
<path d="M206.7 67.4C199.3 70.1 196 75 196 83.3C196 87.3 196.6 89.6 198.3 92C202.1 97.7 205.4 99.5 212 99.5C218.6 99.5 221.9 97.7 225.8 91.9C227.8 89 228.1 87.5 227.8 82.3C227.5 78 226.8 75.2 225.3 73.3C221.1 67.5 213.2 65 206.7 67.4Z" fill="#F8A21E"/>
<path d="M344.7 67.4C336.6 70.4 333.6 75.4 334.2 84.8C334.6 90.8 334.9 91.5 338.7 95.1C353.8 109.1 374.8 89.7 362.8 72.7C359 67.4 351.1 65.1 344.7 67.4Z" fill="#F8A21E"/>
</svg>
